# xmcd
#
# Track frame offsets:
#	150
#	2717
#	19822
#	35887
#	60017
#	81035
#	83137
#	105727
#	128470
#	143012
#	156880
#	159132
#	184577
#	205457
#	232107
#	251770
#
# Disc length: 3397 seconds
# Revision: 0
# Processed by: cddbd v1.5.2PL0 Copyright (c) Steve Scherf et al.
# Submitted via: dBpowerAMP V12.0
#
DISCID=c30d4310
DTITLE=Various Artist - Baddest Love Jams Vol. 1 After The Dance
DYEAR=1996
DGENRE=Slow Jam
TTITLE0=Impromptu - Get Off Me (interlude)
TTITLE1=DeBarge - Stay With Me
TTITLE2=Teena Marie - Irons In The Fire
TTITLE3=Switch - There'll Never Be
TTITLE4=Marvin Gaye - After The Dance
TTITLE5=Norman Brown - Moonlight Tonight (interlude) norman brown
TTITLE6=Jermaine Jackson - You Like Me Don't You?
TTITLE7=Rick James and Smokey Robinson - Ebony Eyes
TTITLE8=The Jackson 5 - All I Do Is Think Of You
TTITLE9=The Originals - The Bells
TTITLE10=J. Spencer - Thinkin' About You
TTITLE11=Stevie Wonder - Ribbon In The Sky
TTITLE12=Johnny Gill - Feels So Much Better
TTITLE13=Smokey Robinson - Cruisin'
TTITLE14=Mary Jane Girls - Shadow Lover
TTITLE15=Grover Washington Jr. - A Secret Place (interlude)
EXTD=
EXTT0=
EXTT1=
EXTT2=
EXTT3=
EXTT4=
EXTT5=
EXTT6=
EXTT7=
EXTT8=
EXTT9=
EXTT10=
EXTT11=
EXTT12=
EXTT13=
EXTT14=
EXTT15=
PLAYORDER=
